HIERARCHY
ROOT CG
{
	OFFSET 0.000000 0.000000 27.772259
	CHANNELS 6 Xposition Yposition Zposition Xrotation Yrotation Zrotation
	JOINT Pelvis
	{
		OFFSET 0.000000 0.000000 0.000000
		CHANNELS 3 Xrotation Yrotation Zrotation
		JOINT Spine
		{
			OFFSET -0.000017 -10.490843 -0.495483
			CHANNELS 3 Xrotation Yrotation Zrotation
			JOINT Spine1
			{
				OFFSET -0.000010 -22.678980 0.018061
				CHANNELS 3 Xrotation Yrotation Zrotation
				JOINT Spine2
				{
					OFFSET -0.000010 -22.678967 0.018061
					CHANNELS 3 Xrotation Yrotation Zrotation
					JOINT Spine3
					{
						OFFSET -0.000010 -22.678982 0.018059
						CHANNELS 3 Xrotation Yrotation Zrotation
						JOINT Neck
						{
							OFFSET -0.000012 -22.678986 -1.289251
							CHANNELS 3 Xrotation Yrotation Zrotation
							JOINT Neck1
							{
								OFFSET -0.000007 -16.255905 0.012947
								CHANNELS 3 Xrotation Yrotation Zrotation
								JOINT Head
								{
									OFFSET -0.000005 -10.784607 -0.287502
									CHANNELS 3 Xrotation Yrotation Zrotation
									JOINT Jaw01
									{
										OFFSET 0.000031 7.782959 5.073944
										CHANNELS 3 Xrotation Yrotation Zrotation
										JOINT Jaw02
										{
											OFFSET 0.000004 -34.927139 -18.883980
											CHANNELS 3 Xrotation Yrotation Zrotation
											End Site
											{
												OFFSET -0.000170 8.372803 -38.812450
											}
										}
									}
									JOINT Nose
									{
										OFFSET -0.000002 -25.700912 7.222265
										CHANNELS 3 Xrotation Yrotation Zrotation
										End Site
										{
											OFFSET -0.000090 0.641281 -21.715439
										}
									}
									JOINT L_EyeSocket
									{
										OFFSET 7.352326 -19.832718 14.164183
										CHANNELS 3 Xrotation Yrotation Zrotation
										JOINT L_Eye
										{
											OFFSET -0.000868 -0.001053 0.016003
											CHANNELS 3 Xrotation Yrotation Zrotation
											End Site
											{
												OFFSET -0.001505 -0.001846 0.027969
											}
										}
										JOINT L_Eyelid_Top
										{
											OFFSET -0.001004 -0.002625 0.032516
											CHANNELS 3 Xrotation Yrotation Zrotation
											End Site
											{
												OFFSET -0.013218 0.005753 0.024086
											}
										}
										JOINT L_Eyelid_Bottom
										{
											OFFSET -0.001194 -0.002777 0.035381
											CHANNELS 3 Xrotation Yrotation Zrotation
											End Site
											{
												OFFSET -0.010032 0.008636 -0.024754
											}
										}
									}
									JOINT R_EyeSocket
									{
										OFFSET -7.352252 -19.832748 14.164206
										CHANNELS 3 Xrotation Yrotation Zrotation
										JOINT R_Eye
										{
											OFFSET 0.000875 -0.001068 0.015991
											CHANNELS 3 Xrotation Yrotation Zrotation
											End Site
											{
												OFFSET 0.001505 -0.001846 0.027962
											}
										}
										JOINT R_Eyelid_Top
										{
											OFFSET 0.001021 -0.002625 0.032516
											CHANNELS 3 Xrotation Yrotation Zrotation
											End Site
											{
												OFFSET 0.013214 0.005753 0.024078
											}
										}
										JOINT R_Eyelid_Bottom
										{
											OFFSET 0.001170 -0.002762 0.035366
											CHANNELS 3 Xrotation Yrotation Zrotation
											End Site
											{
												OFFSET 0.010029 0.008636 -0.024746
											}
										}
									}
								}
								JOINT Neck_Fat
								{
									OFFSET 0.000044 -9.595100 -17.491512
									CHANNELS 3 Xrotation Yrotation Zrotation
									End Site
									{
										OFFSET -0.000036 15.369423 -0.000007
									}
								}
							}
						}
						JOINT L_Clavicle
						{
							OFFSET 4.567107 -11.666092 -3.750029
							CHANNELS 3 Xrotation Yrotation Zrotation
							JOINT L_UpperArm
							{
								OFFSET 20.725666 -0.000053 -0.000032
								CHANNELS 3 Xrotation Yrotation Zrotation
								JOINT L_Forearm
								{
									OFFSET 5.265112 -0.585754 -20.155697
									CHANNELS 3 Xrotation Yrotation Zrotation
									JOINT L_Hand
									{
										OFFSET 2.653017 -10.877708 -16.383667
										CHANNELS 3 Xrotation Yrotation Zrotation
										JOINT L_Finger0
										{
											OFFSET -4.206146 -4.328911 -5.034346
											CHANNELS 3 Xrotation Yrotation Zrotation
											JOINT L_Finger01
											{
												OFFSET 0.084272 -1.788536 -4.181065
												CHANNELS 3 Xrotation Yrotation Zrotation
												End Site
												{
													OFFSET 3.261885 3.094673 -0.685818
												}
											}
										}
										JOINT L_Finger1
										{
											OFFSET -1.039112 -6.775742 -3.499998
											CHANNELS 3 Xrotation Yrotation Zrotation
											JOINT L_Finger11
											{
												OFFSET 1.320335 -3.040672 -6.425793
												CHANNELS 3 Xrotation Yrotation Zrotation
												End Site
												{
													OFFSET -1.244579 6.832077 -2.013330
												}
											}
										}
										JOINT L_Finger2
										{
											OFFSET 2.531296 -5.656487 -3.286415
											CHANNELS 3 Xrotation Yrotation Zrotation
											JOINT L_Finger21
											{
												OFFSET 1.991665 -2.402016 -5.957748
												CHANNELS 3 Xrotation Yrotation Zrotation
												End Site
												{
													OFFSET -2.793068 5.800873 -1.944178
												}
											}
										}
										JOINT L_Finger3
										{
											OFFSET 5.474075 -3.302338 -2.655975
											CHANNELS 3 Xrotation Yrotation Zrotation
											JOINT L_Finger31
											{
												OFFSET 2.026943 -1.267532 -5.961166
												CHANNELS 3 Xrotation Yrotation Zrotation
												End Site
												{
													OFFSET -4.375172 4.343658 -1.800320
												}
											}
										}
										JOINT L_Finger4
										{
											OFFSET 4.825745 1.085899 -2.321970
											CHANNELS 3 Xrotation Yrotation Zrotation
											JOINT L_Finger41
											{
												OFFSET 3.358261 -1.829651 -3.744434
												CHANNELS 3 Xrotation Yrotation Zrotation
												End Site
												{
													OFFSET -3.843296 2.955200 -2.267633
												}
											}
										}
									}
								}
							}
						}
						JOINT R_Clavicle
						{
							OFFSET -4.567111 -11.666092 -3.750036
							CHANNELS 3 Xrotation Yrotation Zrotation
							JOINT R_UpperArm
							{
								OFFSET -20.725670 -0.000031 0.000038
								CHANNELS 3 Xrotation Yrotation Zrotation
								JOINT R_Forearm
								{
									OFFSET -5.265285 -0.585762 -20.155655
									CHANNELS 3 Xrotation Yrotation Zrotation
									JOINT R_Hand
									{
										OFFSET -2.653147 -10.877739 -16.383663
										CHANNELS 3 Xrotation Yrotation Zrotation
										JOINT R_Finger0
										{
											OFFSET 4.206116 -4.328888 -5.034388
											CHANNELS 3 Xrotation Yrotation Zrotation
											JOINT R_Finger01
											{
												OFFSET -0.084324 -1.788544 -4.181051
												CHANNELS 3 Xrotation Yrotation Zrotation
												End Site
												{
													OFFSET -3.261890 3.094666 -0.685791
												}
											}
										}
										JOINT R_Finger1
										{
											OFFSET 1.039101 -6.775711 -3.499994
											CHANNELS 3 Xrotation Yrotation Zrotation
											JOINT R_Finger11
											{
												OFFSET -1.320374 -3.040672 -6.425779
												CHANNELS 3 Xrotation Yrotation Zrotation
												End Site
												{
													OFFSET 1.244556 6.832077 -2.013342
												}
											}
										}
										JOINT R_Finger2
										{
											OFFSET -2.531307 -5.656464 -3.286409
											CHANNELS 3 Xrotation Yrotation Zrotation
											JOINT R_Finger21
											{
												OFFSET -1.991707 -2.402016 -5.957708
												CHANNELS 3 Xrotation Yrotation Zrotation
												End Site
												{
													OFFSET 2.793037 5.800858 -1.944197
												}
											}
										}
										JOINT R_Finger3
										{
											OFFSET -5.474091 -3.302330 -2.655947
											CHANNELS 3 Xrotation Yrotation Zrotation
											JOINT R_Finger31
											{
												OFFSET -2.026993 -1.267532 -5.961157
												CHANNELS 3 Xrotation Yrotation Zrotation
												End Site
												{
													OFFSET 4.375156 4.343674 -1.800358
												}
											}
										}
										JOINT R_Finger4
										{
											OFFSET -4.825756 1.085922 -2.321926
											CHANNELS 3 Xrotation Yrotation Zrotation
											JOINT R_Finger41
											{
												OFFSET -3.358307 -1.829651 -3.744390
												CHANNELS 3 Xrotation Yrotation Zrotation
												End Site
												{
													OFFSET 3.843273 2.955208 -2.267666
												}
											}
										}
									}
								}
							}
						}
					}
				}
			}
		}
		JOINT Tail01
		{
			OFFSET -0.000010 10.922326 -0.017508
			CHANNELS 3 Xrotation Yrotation Zrotation
			JOINT Tail02
			{
				OFFSET -0.000022 21.986111 0.000013
				CHANNELS 3 Xrotation Yrotation Zrotation
				JOINT Tail03
				{
					OFFSET -0.000022 21.986118 0.000002
					CHANNELS 3 Xrotation Yrotation Zrotation
					JOINT Tail04
					{
						OFFSET -0.000022 21.986122 0.000004
						CHANNELS 3 Xrotation Yrotation Zrotation
						JOINT Tail05
						{
							OFFSET -0.000022 21.986099 0.000010
							CHANNELS 3 Xrotation Yrotation Zrotation
							JOINT Tail06
							{
								OFFSET -0.000022 21.986099 0.000006
								CHANNELS 3 Xrotation Yrotation Zrotation
								JOINT Tail07
								{
									OFFSET -0.000022 21.986099 0.000000
									CHANNELS 3 Xrotation Yrotation Zrotation
									JOINT Tail08
									{
										OFFSET -0.000022 21.984848 0.000050
										CHANNELS 3 Xrotation Yrotation Zrotation
										JOINT Tail09
										{
											OFFSET -0.000025 21.926025 -1.606211
											CHANNELS 3 Xrotation Yrotation Zrotation
											JOINT Tail10
											{
												OFFSET -0.000027 21.750092 -3.203882
												CHANNELS 3 Xrotation Yrotation Zrotation
												End Site
												{
													OFFSET -0.000036 4.767395 21.461668
												}
											}
										}
									}
								}
							}
						}
					}
				}
			}
		}
		JOINT L_Thigh
		{
			OFFSET 24.788780 0.000021 -0.000034
			CHANNELS 3 Xrotation Yrotation Zrotation
			JOINT L_Calf
			{
				OFFSET 4.720837 4.161326 -21.049969
				CHANNELS 3 Xrotation Yrotation Zrotation
				JOINT L_Foot
				{
					OFFSET 2.154160 21.114433 -11.949743
					CHANNELS 3 Xrotation Yrotation Zrotation
					JOINT L_Toe0
					{
						OFFSET 4.557564 9.251841 -8.735286
						CHANNELS 3 Xrotation Yrotation Zrotation
						End Site
						{
							OFFSET 4.555542 -12.646044 1.018752
						}
					}
					JOINT L_Toe1
					{
						OFFSET 2.346291 5.845602 -11.687160
						CHANNELS 3 Xrotation Yrotation Zrotation
						End Site
						{
							OFFSET 5.347954 -12.298279 1.365644
						}
					}
					JOINT L_Toe2
					{
						OFFSET -0.356020 3.902458 -12.541145
						CHANNELS 3 Xrotation Yrotation Zrotation
						End Site
						{
							OFFSET 3.916235 -12.806129 1.542549
						}
					}
					JOINT L_Toe3
					{
						OFFSET -4.603447 3.183935 -12.435249
						CHANNELS 3 Xrotation Yrotation Zrotation
						End Site
						{
							OFFSET 3.810858 -12.587427 2.957583
						}
					}
					JOINT L_Toe4
					{
						OFFSET -7.144358 6.231495 -10.072764
						CHANNELS 3 Xrotation Yrotation Zrotation
						End Site
						{
							OFFSET 3.810858 -12.587425 2.957585
						}
					}
				}
			}
		}
		JOINT R_Thigh
		{
			OFFSET -24.788780 -0.000024 0.000034
			CHANNELS 3 Xrotation Yrotation Zrotation
			JOINT R_Calf
			{
				OFFSET -4.720922 4.161324 -21.049952
				CHANNELS 3 Xrotation Yrotation Zrotation
				JOINT R_Foot
				{
					OFFSET -2.154238 21.114414 -11.949730
					CHANNELS 3 Xrotation Yrotation Zrotation
					JOINT R_Toe0
					{
						OFFSET -4.557598 9.251823 -8.735270
						CHANNELS 3 Xrotation Yrotation Zrotation
						End Site
						{
							OFFSET -4.555508 -12.646051 1.018756
						}
					}
					JOINT R_Toe1
					{
						OFFSET -2.346325 5.845589 -11.687157
						CHANNELS 3 Xrotation Yrotation Zrotation
						End Site
						{
							OFFSET -5.347919 -12.298286 1.365654
						}
					}
					JOINT R_Toe2
					{
						OFFSET 0.355980 3.902462 -12.541145
						CHANNELS 3 Xrotation Yrotation Zrotation
						End Site
						{
							OFFSET -3.916199 -12.806131 1.542559
						}
					}
					JOINT R_Toe3
					{
						OFFSET 4.603411 3.183941 -12.435266
						CHANNELS 3 Xrotation Yrotation Zrotation
						End Site
						{
							OFFSET -3.810825 -12.587429 2.957591
						}
					}
					JOINT R_Toe4
					{
						OFFSET 7.144323 6.231503 -10.072779
						CHANNELS 3 Xrotation Yrotation Zrotation
						End Site
						{
							OFFSET -3.810825 -12.587433 2.957584
						}
					}
				}
			}
		}
	}
}
MOTION
Frames: 4
Frame Time: 0.033333
12.000000 -0.000001 36.000000 0.000000 -0.000000 -0.000058 0.000001 0.000000 13.456160 -5.205519 -2.620125 -3.932708 -5.469757 -2.612460 -4.635939 -5.786260 -2.551990 -5.174960 -4.976494 -2.432799 -7.492548 -5.033668 0.107747 -3.132450 -8.260506 3.375441 -2.454477 -0.337938 11.146376 4.997612 -17.253311 -0.000019 0.000024 0.000017 0.000001 0.000000 0.000020 0.000000 -0.000007 0.000000 -0.000000 -0.000033 0.000143 -0.000081 0.000013 0.000006 -0.000003 -0.000001 0.000011 -0.000005 0.000012 0.000001 0.000001 -0.000005 0.000135 0.000083 -0.000011 0.000003 -0.000002 -0.000003 -0.000002 0.000008 -0.000001 -0.000002 -0.000001 0.000000 0.000480 13.386947 10.696917 107.805274 -9.512671 -8.923675 -15.854978 3.046072 -3.842276 22.704529 -2.712486 -35.661381 17.515457 -3.433412 -0.020901 8.941349 -5.638874 0.726226 8.824674 1.946057 0.776736 8.824677 1.946059 0.776748 7.978802 4.238631 0.694295 7.978821 4.238643 0.694308 6.213812 6.597687 0.363284 6.213812 6.597707 0.363285 5.100407 7.461106 0.645467 5.100354 7.461100 0.645511 0.001458 -18.440587 -11.352640 107.829139 10.126576 -50.699856 -6.349045 -1.086937 1.632866 0.895978 -0.694647 14.742224 6.817905 -7.694827 4.439565 -4.449569 -8.290404 5.013568 -10.859426 2.186529 1.345333 -10.859430 2.186535 1.345330 -9.885896 4.998703 1.647505 -9.885889 4.998689 1.647503 -7.745937 7.971597 1.426292 -7.745957 7.971610 1.426280 -6.442757 9.018786 1.709112 -6.442753 9.018783 1.709097 4.967315 0.201656 2.292837 4.970148 -0.094129 -1.085971 4.946955 0.487756 5.635854 4.956863 0.392130 4.528296 4.973138 0.014681 0.169317 4.963372 -0.299332 -3.455254 4.942578 -0.525052 -6.068460 4.927743 -1.245865 -7.764907 4.586892 -2.750200 -11.693209 4.003693 -4.434616 -14.217824 20.112914 1.544050 8.329709 13.302924 0.723984 2.990215 40.017300 20.159942 8.268315 14.852694 6.555541 4.804984 14.878959 7.495085 3.294765 16.253473 5.330674 0.860202 16.540731 4.471546 -1.840440 16.255755 3.122924 -5.011556 39.757565 -0.437277 4.596048 -2.981468 0.065719 0.686950 40.166908 2.877315 -9.155715 -0.000014 0.000008 -0.000006 0.000001 0.000005 -0.000000 -0.000000 0.000003 -0.000000 -0.000003 -0.000001 -0.000000 -0.000012 0.000003 -0.000001 
13.865177 -0.000002 36.000000 0.000000 -0.000000 -0.000058 0.000000 0.000000 12.439518 -5.315027 -2.926903 -4.959699 -5.523428 -2.497607 -4.840864 -5.797418 -2.461423 -5.114753 -4.778711 -2.422258 -6.538445 -5.034080 0.091763 -2.524204 -8.310102 3.419266 -1.498730 0.198885 10.578938 4.844779 -17.253314 -0.000022 0.000025 0.000020 0.000001 -0.000000 0.000018 0.000000 -0.000006 0.000001 -0.000001 -0.000038 0.000139 -0.000080 0.000010 0.000001 -0.000005 -0.000003 0.000008 -0.000007 0.000012 -0.000000 0.000000 -0.000003 0.000134 0.000081 -0.000006 0.000004 -0.000007 -0.000002 -0.000005 0.000001 -0.000000 -0.000001 0.000000 0.000000 0.000481 13.614252 10.990471 107.496509 -9.488330 -6.561006 -14.830595 2.817024 -3.619384 22.015137 -0.675081 -33.941198 16.913334 -2.853658 -0.313324 7.837684 -4.601157 0.158193 7.287267 1.600111 0.667379 7.288042 1.598644 0.663054 6.589663 3.493591 0.615759 6.589692 3.493608 0.615776 5.129585 5.445578 0.351493 5.129589 5.445597 0.351484 4.213090 6.157092 0.580526 4.213035 6.157066 0.580570 0.000825 -18.353220 -11.159076 108.195954 9.465725 -48.016694 -8.478298 -1.492380 2.154021 1.540145 -1.125642 14.839102 7.292450 -7.166497 4.288412 -3.980604 -7.758704 4.861320 -10.136794 2.049949 1.244248 -10.136931 2.049705 1.243387 -9.225913 4.673671 1.504612 -9.223668 4.676499 1.511295 -7.225159 7.447318 1.288791 -7.222131 7.449312 1.297415 -6.002939 8.426863 1.563007 -6.002931 8.426853 1.562987 4.966279 0.215682 2.417271 4.971189 -0.042336 -0.470442 4.944143 0.517439 5.915673 4.953233 0.443027 5.103823 4.972595 0.115494 1.271017 4.971206 -0.162853 -1.993162 4.959742 -0.381511 -4.437897 5.109405 0.031342 -6.319353 5.352670 -0.105246 -10.659519 5.829631 -0.703886 -14.078949 21.270522 1.735385 7.110019 12.119670 0.631549 2.731571 39.604299 19.070264 8.738591 14.992740 6.617626 4.842185 15.021193 7.567130 3.309382 16.407612 5.381297 0.858553 16.697944 4.512240 -1.860558 16.411053 3.144252 -5.062637 38.992536 -0.254731 2.919251 -2.237330 0.052668 0.515207 41.689077 0.978447 -8.358542 -0.000016 -0.000001 -0.000009 -0.000001 0.000003 -0.000002 0.000027 0.000105 -0.000012 -0.000002 0.000002 -0.000001 -0.000013 0.000001 -0.000002 
15.274810 -0.000002 36.000000 0.000000 -0.000000 -0.000058 0.000000 0.000000 10.455643 -5.365578 -3.327534 -5.045020 -5.582104 -2.402223 -5.088038 -5.814378 -2.391583 -5.078495 -4.581050 -2.430469 -5.582117 -5.034144 0.077940 -1.931698 -8.360705 3.517044 -0.519018 0.683056 10.002424 4.717933 -17.253312 -0.000020 0.000025 0.000016 0.000002 -0.000000 0.000023 0.000000 -0.000006 0.000002 -0.000001 -0.000033 0.000142 -0.000080 0.000010 0.000006 0.000000 0.000002 0.000011 -0.000006 0.000017 -0.000000 0.000001 -0.000000 0.000138 0.000083 -0.000008 0.000006 0.000001 -0.000001 0.000001 0.000006 -0.000001 -0.000002 -0.000000 0.000002 0.000511 14.042457 11.502076 107.032281 -10.252724 -2.638119 -13.309986 2.484726 -3.281414 20.633377 3.585734 -30.324254 15.862655 -1.828834 -0.816220 5.944463 -2.773159 -0.779749 4.615063 1.000274 0.444305 4.614725 1.002196 0.443334 4.174034 2.202781 0.435102 4.173635 2.203295 0.436365 3.248638 3.442622 0.275555 3.247481 3.443354 0.279021 2.669857 3.892749 0.420611 2.670557 3.892309 0.419759 0.001310 -18.226117 -11.040758 108.991965 9.028568 -44.790277 -11.044860 -2.007280 2.762815 2.381821 -1.816466 14.544003 7.902759 -6.497563 4.072342 -3.375787 -7.082997 4.653796 -9.210563 1.872383 1.115144 -9.210561 1.872327 1.115168 -8.375134 4.266695 1.337938 -8.375744 4.260944 1.342133 -6.552761 6.777647 1.139368 -6.552787 6.777651 1.139365 -5.441920 7.665952 1.382609 -5.441917 7.665952 1.382600 4.964890 0.230566 2.602733 4.971772 0.020709 0.257509 4.940991 0.545183 6.166114 4.950158 0.490051 5.645917 4.969852 0.209139 2.366728 4.973959 -0.034613 -0.497199 4.971112 -0.242222 -2.745586 5.141534 0.264449 -4.635377 5.392518 0.278236 -8.869108 5.839238 -0.161095 -12.483775 22.492296 2.272385 6.608188 10.816459 0.535978 2.444674 39.280951 17.877301 9.309310 15.152807 6.701969 4.885525 15.179576 7.662830 3.341730 16.586641 5.442276 0.861831 16.882185 4.556031 -1.891315 16.594614 3.162289 -5.121129 38.152607 0.500261 1.801449 -1.471101 0.036896 0.338545 43.547445 -0.990607 -7.561206 -0.000000 0.000004 -0.000009 0.000003 0.000003 -0.000005 0.000121 0.000390 -0.000049 -0.000000 0.000001 -0.000001 -0.000026 0.000008 0.000001 
16.764982 -0.000002 36.000000 0.000000 -0.000000 -0.000058 0.000000 0.000000 8.338930 -5.391508 -3.741947 -4.993843 -5.640421 -2.310150 -5.340714 -5.830303 -2.325143 -5.044238 -4.383930 -2.438519 -4.626999 -5.034120 0.063027 -1.342555 -8.413978 3.621260 0.464089 1.128442 9.404323 4.599522 -17.253314 -0.000021 0.000025 0.000015 0.000001 -0.000000 0.000020 0.000000 -0.000005 0.000001 0.000000 -0.000036 0.000138 -0.000083 0.000011 0.000000 -0.000008 0.000000 0.000008 -0.000007 0.000019 0.000000 0.000001 -0.000002 0.000136 0.000081 -0.000006 0.000001 -0.000004 -0.000003 -0.000002 0.000004 0.000000 -0.000003 0.000001 0.000001 0.009403 14.508852 12.050926 106.653677 -11.187062 1.588044 -11.696552 2.142437 -2.913784 18.838519 8.031077 -26.226367 14.740412 -0.713574 -1.335941 3.961237 -0.786333 -1.721453 1.757511 0.372791 0.174900 1.756269 0.376994 0.178139 1.589296 0.834314 0.184858 1.589307 0.834330 0.184867 1.237391 1.307495 0.127098 1.236721 1.307921 0.129092 1.018637 1.478290 0.180951 1.018610 1.478265 0.180973 0.002057 -18.089514 -10.937984 109.923541 8.662607 -41.480852 -13.688603 -2.566638 3.366463 3.299931 -2.572036 14.183315 8.543234 -5.796119 3.848251 -2.739310 -6.375271 4.430962 -8.238923 1.683973 0.983605 -8.238905 1.683971 0.983725 -7.488735 3.819890 1.169375 -7.487676 3.822205 1.171352 -5.853925 6.070412 0.980320 -5.853289 6.070851 0.982221 -4.856770 6.865580 1.201699 -4.856763 6.865575 1.201679 4.963356 0.243579 2.821737 4.971079 0.088905 1.073983 4.936332 0.574341 6.466839 4.947246 0.535594 6.140296 4.966052 0.295490 3.329679 4.973388 0.083074 0.825105 4.976531 -0.109493 -1.164804 5.168937 0.496222 -2.891274 5.430216 0.690515 -6.873823 5.851257 0.453607 -10.558123 23.739123 2.932578 6.095030 9.434544 0.441829 2.138270 38.976618 16.590921 10.030182 15.626790 6.934315 5.013342 15.660227 7.912111 3.414676 17.114396 5.617225 0.863867 17.421970 4.691334 -1.973808 17.124611 3.241977 -5.300788 37.268145 1.356470 0.674106 -0.684632 0.018250 0.157441 45.776406 -2.958693 -6.735891 -0.000002 0.000000 -0.000009 0.000003 0.000002 -0.000002 0.000250 0.000805 -0.000099 -0.000001 -0.000001 -0.000002 -0.000024 0.000007 -0.000000 
